<mxfile host="app.diagrams.net" modified="2025-01-24T12:28:14.054Z" agent="Mozilla/5.0 (Windows NT 10.0; Win64; x64) AppleWebKit/537.36 (KHTML, like Gecko) Chrome/130.0.0.0 YaBrowser/24.12.0.0 Safari/537.36" etag="TuRnu0xyTS24oLqoDYye" version="21.8.2" type="device">
  <diagram name="Страница — 1" id="d4Io2-TKCd1Xsw53z9Tn">
    <mxGraphModel dx="7507" dy="3780" grid="1" gridSize="10" guides="1" tooltips="1" connect="1" arrows="1" fold="1" page="1" pageScale="1" pageWidth="827" pageHeight="1169" math="0" shadow="0">
      <root>
        <mxCell id="0" />
        <mxCell id="1" parent="0" />
        <mxCell id="N4OC66wwxZGrX0035T5u-1" value="" style="rounded=0;whiteSpace=wrap;html=1;" vertex="1" parent="1">
          <mxGeometry x="-280" width="650" height="3650" as="geometry" />
        </mxCell>
        <mxCell id="N4OC66wwxZGrX0035T5u-2" value="" style="rounded=0;whiteSpace=wrap;html=1;" vertex="1" parent="1">
          <mxGeometry x="360" width="360" height="3650" as="geometry" />
        </mxCell>
        <mxCell id="N4OC66wwxZGrX0035T5u-3" value="" style="rounded=0;whiteSpace=wrap;html=1;" vertex="1" parent="1">
          <mxGeometry x="720" width="690" height="3650" as="geometry" />
        </mxCell>
        <mxCell id="N4OC66wwxZGrX0035T5u-4" value="CUSTOMER" style="text;align=center;fontStyle=1;verticalAlign=middle;spacingLeft=3;spacingRight=3;strokeColor=none;rotatable=0;points=[[0,0.5],[1,0.5]];portConstraint=eastwest;html=1;" vertex="1" parent="1">
          <mxGeometry x="130" y="10" width="80" height="26" as="geometry" />
        </mxCell>
        <mxCell id="N4OC66wwxZGrX0035T5u-5" value="CASHIER" style="text;align=center;fontStyle=1;verticalAlign=middle;spacingLeft=3;spacingRight=3;strokeColor=none;rotatable=0;points=[[0,0.5],[1,0.5]];portConstraint=eastwest;html=1;" vertex="1" parent="1">
          <mxGeometry x="500" y="10" width="80" height="26" as="geometry" />
        </mxCell>
        <mxCell id="N4OC66wwxZGrX0035T5u-6" value="POS-SYSTEM" style="text;align=center;fontStyle=1;verticalAlign=middle;spacingLeft=3;spacingRight=3;strokeColor=none;rotatable=0;points=[[0,0.5],[1,0.5]];portConstraint=eastwest;html=1;" vertex="1" parent="1">
          <mxGeometry x="860" y="10" width="80" height="26" as="geometry" />
        </mxCell>
        <mxCell id="N4OC66wwxZGrX0035T5u-7" value="" style="rounded=0;whiteSpace=wrap;html=1;" vertex="1" parent="1">
          <mxGeometry x="1410" width="360" height="3650" as="geometry" />
        </mxCell>
        <mxCell id="N4OC66wwxZGrX0035T5u-8" value="MANAGER" style="text;align=center;fontStyle=1;verticalAlign=middle;spacingLeft=3;spacingRight=3;strokeColor=none;rotatable=0;points=[[0,0.5],[1,0.5]];portConstraint=eastwest;html=1;" vertex="1" parent="1">
          <mxGeometry x="1580" y="10" width="80" height="26" as="geometry" />
        </mxCell>
        <mxCell id="N4OC66wwxZGrX0035T5u-9" value="" style="ellipse;html=1;shape=startState;fillColor=#000000;strokeColor=#ff0000;" vertex="1" parent="1">
          <mxGeometry x="155" y="50" width="30" height="30" as="geometry" />
        </mxCell>
        <mxCell id="N4OC66wwxZGrX0035T5u-10" value="" style="edgeStyle=orthogonalEdgeStyle;html=1;verticalAlign=bottom;endArrow=open;endSize=8;strokeColor=#ff0000;rounded=0;" edge="1" source="N4OC66wwxZGrX0035T5u-9" parent="1">
          <mxGeometry relative="1" as="geometry">
            <mxPoint x="170" y="140" as="targetPoint" />
          </mxGeometry>
        </mxCell>
        <mxCell id="N4OC66wwxZGrX0035T5u-13" value="" style="edgeStyle=orthogonalEdgeStyle;rounded=0;orthogonalLoop=1;jettySize=auto;html=1;exitX=0.5;exitY=1;exitDx=0;exitDy=0;" edge="1" parent="1" source="N4OC66wwxZGrX0035T5u-178" target="N4OC66wwxZGrX0035T5u-12">
          <mxGeometry relative="1" as="geometry">
            <mxPoint x="170" y="220" as="sourcePoint" />
          </mxGeometry>
        </mxCell>
        <mxCell id="N4OC66wwxZGrX0035T5u-16" value="" style="edgeStyle=orthogonalEdgeStyle;rounded=0;orthogonalLoop=1;jettySize=auto;html=1;entryX=0;entryY=0.5;entryDx=0;entryDy=0;" edge="1" parent="1" source="N4OC66wwxZGrX0035T5u-12" target="N4OC66wwxZGrX0035T5u-15">
          <mxGeometry relative="1" as="geometry" />
        </mxCell>
        <mxCell id="N4OC66wwxZGrX0035T5u-12" value="approach to POs-system" style="html=1;align=center;verticalAlign=top;rounded=1;absoluteArcSize=1;arcSize=10;dashed=0;whiteSpace=wrap;" vertex="1" parent="1">
          <mxGeometry x="100" y="270" width="140" height="40" as="geometry" />
        </mxCell>
        <mxCell id="N4OC66wwxZGrX0035T5u-18" value="" style="edgeStyle=orthogonalEdgeStyle;rounded=0;orthogonalLoop=1;jettySize=auto;html=1;" edge="1" parent="1" source="N4OC66wwxZGrX0035T5u-15" target="N4OC66wwxZGrX0035T5u-17">
          <mxGeometry relative="1" as="geometry" />
        </mxCell>
        <mxCell id="N4OC66wwxZGrX0035T5u-15" value="open sale" style="html=1;align=center;verticalAlign=top;rounded=1;absoluteArcSize=1;arcSize=10;dashed=0;whiteSpace=wrap;" vertex="1" parent="1">
          <mxGeometry x="470" y="270" width="140" height="40" as="geometry" />
        </mxCell>
        <mxCell id="N4OC66wwxZGrX0035T5u-20" style="edgeStyle=orthogonalEdgeStyle;rounded=0;orthogonalLoop=1;jettySize=auto;html=1;entryX=0;entryY=0.5;entryDx=0;entryDy=0;" edge="1" parent="1" source="N4OC66wwxZGrX0035T5u-17" target="N4OC66wwxZGrX0035T5u-19">
          <mxGeometry relative="1" as="geometry" />
        </mxCell>
        <mxCell id="N4OC66wwxZGrX0035T5u-17" value="input item id" style="html=1;align=center;verticalAlign=top;rounded=1;absoluteArcSize=1;arcSize=10;dashed=0;whiteSpace=wrap;" vertex="1" parent="1">
          <mxGeometry x="470" y="360" width="140" height="40" as="geometry" />
        </mxCell>
        <mxCell id="N4OC66wwxZGrX0035T5u-19" value="write item name" style="html=1;align=center;verticalAlign=top;rounded=1;absoluteArcSize=1;arcSize=10;dashed=0;whiteSpace=wrap;" vertex="1" parent="1">
          <mxGeometry x="827" y="360" width="140" height="40" as="geometry" />
        </mxCell>
        <mxCell id="N4OC66wwxZGrX0035T5u-27" style="edgeStyle=orthogonalEdgeStyle;rounded=0;orthogonalLoop=1;jettySize=auto;html=1;entryX=0.5;entryY=0;entryDx=0;entryDy=0;" edge="1" parent="1" source="N4OC66wwxZGrX0035T5u-21" target="N4OC66wwxZGrX0035T5u-23">
          <mxGeometry relative="1" as="geometry" />
        </mxCell>
        <mxCell id="N4OC66wwxZGrX0035T5u-21" value="" style="html=1;points=[];perimeter=orthogonalPerimeter;fillColor=strokeColor;direction=south;" vertex="1" parent="1">
          <mxGeometry x="830.5" y="470" width="133" height="2.5" as="geometry" />
        </mxCell>
        <mxCell id="N4OC66wwxZGrX0035T5u-22" value="print price" style="html=1;align=center;verticalAlign=top;rounded=1;absoluteArcSize=1;arcSize=10;dashed=0;whiteSpace=wrap;" vertex="1" parent="1">
          <mxGeometry x="720" y="520" width="140" height="40" as="geometry" />
        </mxCell>
        <mxCell id="N4OC66wwxZGrX0035T5u-23" value="print decsribtion" style="html=1;align=center;verticalAlign=top;rounded=1;absoluteArcSize=1;arcSize=10;dashed=0;whiteSpace=wrap;" vertex="1" parent="1">
          <mxGeometry x="827" y="584" width="140" height="40" as="geometry" />
        </mxCell>
        <mxCell id="N4OC66wwxZGrX0035T5u-25" value="print common cost" style="html=1;align=center;verticalAlign=top;rounded=1;absoluteArcSize=1;arcSize=10;dashed=0;whiteSpace=wrap;" vertex="1" parent="1">
          <mxGeometry x="940" y="520" width="140" height="40" as="geometry" />
        </mxCell>
        <mxCell id="N4OC66wwxZGrX0035T5u-26" style="edgeStyle=orthogonalEdgeStyle;rounded=0;orthogonalLoop=1;jettySize=auto;html=1;entryX=-0.306;entryY=0.498;entryDx=0;entryDy=0;entryPerimeter=0;" edge="1" parent="1" source="N4OC66wwxZGrX0035T5u-19" target="N4OC66wwxZGrX0035T5u-21">
          <mxGeometry relative="1" as="geometry" />
        </mxCell>
        <mxCell id="N4OC66wwxZGrX0035T5u-28" value="" style="endArrow=classic;html=1;rounded=0;exitX=0.542;exitY=0.968;exitDx=0;exitDy=0;exitPerimeter=0;entryX=0.817;entryY=-0.003;entryDx=0;entryDy=0;entryPerimeter=0;" edge="1" parent="1">
          <mxGeometry width="50" height="50" relative="1" as="geometry">
            <mxPoint x="830.8760000000001" y="471.47500000000014" as="sourcePoint" />
            <mxPoint x="830.4999999999999" y="520" as="targetPoint" />
          </mxGeometry>
        </mxCell>
        <mxCell id="N4OC66wwxZGrX0035T5u-29" value="" style="endArrow=classic;html=1;rounded=0;exitX=0.542;exitY=0.968;exitDx=0;exitDy=0;exitPerimeter=0;entryX=0.817;entryY=-0.003;entryDx=0;entryDy=0;entryPerimeter=0;" edge="1" parent="1">
          <mxGeometry width="50" height="50" relative="1" as="geometry">
            <mxPoint x="963.5" y="470" as="sourcePoint" />
            <mxPoint x="962.5" y="519" as="targetPoint" />
          </mxGeometry>
        </mxCell>
        <mxCell id="N4OC66wwxZGrX0035T5u-37" value="" style="edgeStyle=orthogonalEdgeStyle;rounded=0;orthogonalLoop=1;jettySize=auto;html=1;" edge="1" parent="1" source="N4OC66wwxZGrX0035T5u-31" target="N4OC66wwxZGrX0035T5u-36">
          <mxGeometry relative="1" as="geometry" />
        </mxCell>
        <mxCell id="N4OC66wwxZGrX0035T5u-31" value="" style="html=1;points=[];perimeter=orthogonalPerimeter;fillColor=strokeColor;direction=south;" vertex="1" parent="1">
          <mxGeometry x="833.5" y="700" width="133" height="2.5" as="geometry" />
        </mxCell>
        <mxCell id="N4OC66wwxZGrX0035T5u-32" style="edgeStyle=orthogonalEdgeStyle;rounded=0;orthogonalLoop=1;jettySize=auto;html=1;entryX=-0.067;entryY=0.518;entryDx=0;entryDy=0;entryPerimeter=0;" edge="1" parent="1" source="N4OC66wwxZGrX0035T5u-23" target="N4OC66wwxZGrX0035T5u-31">
          <mxGeometry relative="1" as="geometry" />
        </mxCell>
        <mxCell id="N4OC66wwxZGrX0035T5u-34" style="edgeStyle=orthogonalEdgeStyle;rounded=0;orthogonalLoop=1;jettySize=auto;html=1;entryX=-0.333;entryY=0.989;entryDx=0;entryDy=0;entryPerimeter=0;" edge="1" parent="1" source="N4OC66wwxZGrX0035T5u-22" target="N4OC66wwxZGrX0035T5u-31">
          <mxGeometry relative="1" as="geometry" />
        </mxCell>
        <mxCell id="N4OC66wwxZGrX0035T5u-35" style="edgeStyle=orthogonalEdgeStyle;rounded=0;orthogonalLoop=1;jettySize=auto;html=1;entryX=-0.867;entryY=0.041;entryDx=0;entryDy=0;entryPerimeter=0;" edge="1" parent="1" source="N4OC66wwxZGrX0035T5u-25" target="N4OC66wwxZGrX0035T5u-31">
          <mxGeometry relative="1" as="geometry" />
        </mxCell>
        <mxCell id="N4OC66wwxZGrX0035T5u-38" style="edgeStyle=orthogonalEdgeStyle;rounded=0;orthogonalLoop=1;jettySize=auto;html=1;entryX=0.5;entryY=1;entryDx=0;entryDy=0;" edge="1" parent="1" source="N4OC66wwxZGrX0035T5u-36" target="N4OC66wwxZGrX0035T5u-17">
          <mxGeometry relative="1" as="geometry" />
        </mxCell>
        <mxCell id="N4OC66wwxZGrX0035T5u-41" style="edgeStyle=orthogonalEdgeStyle;rounded=0;orthogonalLoop=1;jettySize=auto;html=1;entryX=0.5;entryY=0;entryDx=0;entryDy=0;" edge="1" parent="1" source="N4OC66wwxZGrX0035T5u-36" target="N4OC66wwxZGrX0035T5u-40">
          <mxGeometry relative="1" as="geometry" />
        </mxCell>
        <mxCell id="N4OC66wwxZGrX0035T5u-36" value="" style="rhombus;" vertex="1" parent="1">
          <mxGeometry x="885" y="760" width="30" height="30" as="geometry" />
        </mxCell>
        <mxCell id="N4OC66wwxZGrX0035T5u-39" value="items left" style="text;html=1;strokeColor=none;fillColor=none;align=center;verticalAlign=middle;whiteSpace=wrap;rounded=0;" vertex="1" parent="1">
          <mxGeometry x="825" y="740" width="60" height="30" as="geometry" />
        </mxCell>
        <mxCell id="N4OC66wwxZGrX0035T5u-43" value="" style="edgeStyle=orthogonalEdgeStyle;rounded=0;orthogonalLoop=1;jettySize=auto;html=1;" edge="1" parent="1" source="N4OC66wwxZGrX0035T5u-40" target="N4OC66wwxZGrX0035T5u-42">
          <mxGeometry relative="1" as="geometry" />
        </mxCell>
        <mxCell id="N4OC66wwxZGrX0035T5u-40" value="switch to manager-mode" style="html=1;align=center;verticalAlign=top;rounded=1;absoluteArcSize=1;arcSize=10;dashed=0;whiteSpace=wrap;" vertex="1" parent="1">
          <mxGeometry x="930" y="880" width="140" height="40" as="geometry" />
        </mxCell>
        <mxCell id="N4OC66wwxZGrX0035T5u-47" style="edgeStyle=orthogonalEdgeStyle;rounded=0;orthogonalLoop=1;jettySize=auto;html=1;entryX=1;entryY=0.5;entryDx=0;entryDy=0;" edge="1" parent="1" source="N4OC66wwxZGrX0035T5u-42" target="N4OC66wwxZGrX0035T5u-44">
          <mxGeometry relative="1" as="geometry" />
        </mxCell>
        <mxCell id="N4OC66wwxZGrX0035T5u-52" value="" style="edgeStyle=orthogonalEdgeStyle;rounded=0;orthogonalLoop=1;jettySize=auto;html=1;entryX=0;entryY=0.5;entryDx=0;entryDy=0;" edge="1" parent="1" source="N4OC66wwxZGrX0035T5u-42" target="N4OC66wwxZGrX0035T5u-49">
          <mxGeometry relative="1" as="geometry" />
        </mxCell>
        <mxCell id="N4OC66wwxZGrX0035T5u-57" style="edgeStyle=orthogonalEdgeStyle;rounded=0;orthogonalLoop=1;jettySize=auto;html=1;entryX=0.5;entryY=0;entryDx=0;entryDy=0;" edge="1" parent="1" source="N4OC66wwxZGrX0035T5u-42" target="N4OC66wwxZGrX0035T5u-56">
          <mxGeometry relative="1" as="geometry" />
        </mxCell>
        <mxCell id="N4OC66wwxZGrX0035T5u-42" value="" style="rhombus;" vertex="1" parent="1">
          <mxGeometry x="985" y="960" width="30" height="30" as="geometry" />
        </mxCell>
        <mxCell id="N4OC66wwxZGrX0035T5u-46" value="" style="edgeStyle=orthogonalEdgeStyle;rounded=0;orthogonalLoop=1;jettySize=auto;html=1;" edge="1" parent="1" source="N4OC66wwxZGrX0035T5u-44" target="N4OC66wwxZGrX0035T5u-45">
          <mxGeometry relative="1" as="geometry" />
        </mxCell>
        <mxCell id="N4OC66wwxZGrX0035T5u-44" value="change balance" style="html=1;align=center;verticalAlign=top;rounded=1;absoluteArcSize=1;arcSize=10;dashed=0;whiteSpace=wrap;" vertex="1" parent="1">
          <mxGeometry x="414" y="955" width="140" height="40" as="geometry" />
        </mxCell>
        <mxCell id="N4OC66wwxZGrX0035T5u-54" style="edgeStyle=orthogonalEdgeStyle;rounded=0;orthogonalLoop=1;jettySize=auto;html=1;entryX=0;entryY=0.5;entryDx=0;entryDy=0;" edge="1" parent="1" source="N4OC66wwxZGrX0035T5u-45" target="N4OC66wwxZGrX0035T5u-53">
          <mxGeometry relative="1" as="geometry" />
        </mxCell>
        <mxCell id="N4OC66wwxZGrX0035T5u-45" value="close sale" style="html=1;align=center;verticalAlign=top;rounded=1;absoluteArcSize=1;arcSize=10;dashed=0;whiteSpace=wrap;" vertex="1" parent="1">
          <mxGeometry x="414" y="1040" width="140" height="40" as="geometry" />
        </mxCell>
        <mxCell id="N4OC66wwxZGrX0035T5u-48" value="manager is busy&amp;nbsp;" style="text;html=1;strokeColor=none;fillColor=none;align=center;verticalAlign=middle;whiteSpace=wrap;rounded=0;" vertex="1" parent="1">
          <mxGeometry x="925" y="940" width="60" height="30" as="geometry" />
        </mxCell>
        <mxCell id="N4OC66wwxZGrX0035T5u-51" value="" style="edgeStyle=orthogonalEdgeStyle;rounded=0;orthogonalLoop=1;jettySize=auto;html=1;" edge="1" parent="1" source="N4OC66wwxZGrX0035T5u-49" target="N4OC66wwxZGrX0035T5u-50">
          <mxGeometry relative="1" as="geometry" />
        </mxCell>
        <mxCell id="N4OC66wwxZGrX0035T5u-49" value="change balance" style="html=1;align=center;verticalAlign=top;rounded=1;absoluteArcSize=1;arcSize=10;dashed=0;whiteSpace=wrap;" vertex="1" parent="1">
          <mxGeometry x="1590" y="955" width="140" height="40" as="geometry" />
        </mxCell>
        <mxCell id="N4OC66wwxZGrX0035T5u-55" style="edgeStyle=orthogonalEdgeStyle;rounded=0;orthogonalLoop=1;jettySize=auto;html=1;entryX=1;entryY=0.5;entryDx=0;entryDy=0;" edge="1" parent="1" source="N4OC66wwxZGrX0035T5u-50" target="N4OC66wwxZGrX0035T5u-53">
          <mxGeometry relative="1" as="geometry" />
        </mxCell>
        <mxCell id="N4OC66wwxZGrX0035T5u-50" value="close sale" style="html=1;align=center;verticalAlign=top;rounded=1;absoluteArcSize=1;arcSize=10;dashed=0;whiteSpace=wrap;" vertex="1" parent="1">
          <mxGeometry x="1590" y="1040" width="140" height="40" as="geometry" />
        </mxCell>
        <mxCell id="N4OC66wwxZGrX0035T5u-53" value="switch to casier-mode" style="html=1;align=center;verticalAlign=top;rounded=1;absoluteArcSize=1;arcSize=10;dashed=0;whiteSpace=wrap;" vertex="1" parent="1">
          <mxGeometry x="760" y="1040" width="140" height="40" as="geometry" />
        </mxCell>
        <mxCell id="N4OC66wwxZGrX0035T5u-60" value="" style="edgeStyle=orthogonalEdgeStyle;rounded=0;orthogonalLoop=1;jettySize=auto;html=1;" edge="1" parent="1" source="N4OC66wwxZGrX0035T5u-56" target="N4OC66wwxZGrX0035T5u-59">
          <mxGeometry relative="1" as="geometry" />
        </mxCell>
        <mxCell id="N4OC66wwxZGrX0035T5u-56" value="calculate common price&amp;nbsp;&lt;br&gt;with taxes" style="html=1;align=center;verticalAlign=top;rounded=1;absoluteArcSize=1;arcSize=10;dashed=0;whiteSpace=wrap;" vertex="1" parent="1">
          <mxGeometry x="930" y="1140" width="140" height="40" as="geometry" />
        </mxCell>
        <mxCell id="N4OC66wwxZGrX0035T5u-64" value="" style="edgeStyle=orthogonalEdgeStyle;rounded=0;orthogonalLoop=1;jettySize=auto;html=1;" edge="1" parent="1" source="N4OC66wwxZGrX0035T5u-58" target="N4OC66wwxZGrX0035T5u-63">
          <mxGeometry relative="1" as="geometry" />
        </mxCell>
        <mxCell id="N4OC66wwxZGrX0035T5u-58" value="restart&amp;nbsp;" style="html=1;align=center;verticalAlign=top;rounded=1;absoluteArcSize=1;arcSize=10;dashed=0;whiteSpace=wrap;" vertex="1" parent="1">
          <mxGeometry x="930" y="1290" width="140" height="40" as="geometry" />
        </mxCell>
        <mxCell id="N4OC66wwxZGrX0035T5u-61" style="edgeStyle=orthogonalEdgeStyle;rounded=0;orthogonalLoop=1;jettySize=auto;html=1;entryX=0.5;entryY=0;entryDx=0;entryDy=0;" edge="1" parent="1" source="N4OC66wwxZGrX0035T5u-59" target="N4OC66wwxZGrX0035T5u-58">
          <mxGeometry relative="1" as="geometry" />
        </mxCell>
        <mxCell id="N4OC66wwxZGrX0035T5u-69" style="edgeStyle=orthogonalEdgeStyle;rounded=0;orthogonalLoop=1;jettySize=auto;html=1;entryX=1;entryY=0.5;entryDx=0;entryDy=0;" edge="1" parent="1" source="N4OC66wwxZGrX0035T5u-59" target="N4OC66wwxZGrX0035T5u-67">
          <mxGeometry relative="1" as="geometry" />
        </mxCell>
        <mxCell id="N4OC66wwxZGrX0035T5u-59" value="" style="rhombus;" vertex="1" parent="1">
          <mxGeometry x="985" y="1220" width="30" height="30" as="geometry" />
        </mxCell>
        <mxCell id="N4OC66wwxZGrX0035T5u-62" value="connection problem" style="text;html=1;strokeColor=none;fillColor=none;align=center;verticalAlign=middle;whiteSpace=wrap;rounded=0;" vertex="1" parent="1">
          <mxGeometry x="1010" y="1250" width="60" height="30" as="geometry" />
        </mxCell>
        <mxCell id="N4OC66wwxZGrX0035T5u-66" value="" style="edgeStyle=orthogonalEdgeStyle;rounded=0;orthogonalLoop=1;jettySize=auto;html=1;" edge="1" parent="1" source="N4OC66wwxZGrX0035T5u-63" target="N4OC66wwxZGrX0035T5u-65">
          <mxGeometry relative="1" as="geometry" />
        </mxCell>
        <mxCell id="N4OC66wwxZGrX0035T5u-70" style="edgeStyle=orthogonalEdgeStyle;rounded=0;orthogonalLoop=1;jettySize=auto;html=1;" edge="1" parent="1" source="N4OC66wwxZGrX0035T5u-63">
          <mxGeometry relative="1" as="geometry">
            <mxPoint x="780" y="1240" as="targetPoint" />
          </mxGeometry>
        </mxCell>
        <mxCell id="N4OC66wwxZGrX0035T5u-63" value="" style="rhombus;" vertex="1" parent="1">
          <mxGeometry x="985" y="1370" width="30" height="30" as="geometry" />
        </mxCell>
        <mxCell id="N4OC66wwxZGrX0035T5u-79" style="edgeStyle=orthogonalEdgeStyle;rounded=0;orthogonalLoop=1;jettySize=auto;html=1;entryX=0.5;entryY=0;entryDx=0;entryDy=0;" edge="1" parent="1" source="N4OC66wwxZGrX0035T5u-65" target="N4OC66wwxZGrX0035T5u-78">
          <mxGeometry relative="1" as="geometry" />
        </mxCell>
        <mxCell id="N4OC66wwxZGrX0035T5u-65" value="signal about error" style="html=1;align=center;verticalAlign=top;rounded=1;absoluteArcSize=1;arcSize=10;dashed=0;whiteSpace=wrap;" vertex="1" parent="1">
          <mxGeometry x="930" y="1440" width="140" height="40" as="geometry" />
        </mxCell>
        <mxCell id="N4OC66wwxZGrX0035T5u-85" value="" style="edgeStyle=orthogonalEdgeStyle;rounded=0;orthogonalLoop=1;jettySize=auto;html=1;" edge="1" parent="1" source="N4OC66wwxZGrX0035T5u-67" target="N4OC66wwxZGrX0035T5u-84">
          <mxGeometry relative="1" as="geometry" />
        </mxCell>
        <mxCell id="N4OC66wwxZGrX0035T5u-67" value="say price" style="html=1;align=center;verticalAlign=top;rounded=1;absoluteArcSize=1;arcSize=10;dashed=0;whiteSpace=wrap;" vertex="1" parent="1">
          <mxGeometry x="390" y="1215" width="140" height="40" as="geometry" />
        </mxCell>
        <mxCell id="N4OC66wwxZGrX0035T5u-71" value="successful&amp;nbsp;&lt;br&gt;restart" style="text;html=1;strokeColor=none;fillColor=none;align=center;verticalAlign=middle;whiteSpace=wrap;rounded=0;" vertex="1" parent="1">
          <mxGeometry x="930" y="1350" width="60" height="30" as="geometry" />
        </mxCell>
        <mxCell id="N4OC66wwxZGrX0035T5u-74" value="" style="edgeStyle=orthogonalEdgeStyle;rounded=0;orthogonalLoop=1;jettySize=auto;html=1;" edge="1" parent="1" source="N4OC66wwxZGrX0035T5u-72" target="N4OC66wwxZGrX0035T5u-73">
          <mxGeometry relative="1" as="geometry" />
        </mxCell>
        <mxCell id="N4OC66wwxZGrX0035T5u-72" value="cancel sale&amp;nbsp;" style="html=1;align=center;verticalAlign=top;rounded=1;absoluteArcSize=1;arcSize=10;dashed=0;whiteSpace=wrap;" vertex="1" parent="1">
          <mxGeometry x="570" y="1490" width="140" height="40" as="geometry" />
        </mxCell>
        <mxCell id="N4OC66wwxZGrX0035T5u-183" style="edgeStyle=orthogonalEdgeStyle;rounded=0;orthogonalLoop=1;jettySize=auto;html=1;" edge="1" parent="1" source="N4OC66wwxZGrX0035T5u-73">
          <mxGeometry relative="1" as="geometry">
            <mxPoint x="-240" y="1670" as="targetPoint" />
            <Array as="points">
              <mxPoint x="640" y="1670" />
              <mxPoint x="-240" y="1670" />
            </Array>
          </mxGeometry>
        </mxCell>
        <mxCell id="N4OC66wwxZGrX0035T5u-73" value="report to customer" style="html=1;align=center;verticalAlign=top;rounded=1;absoluteArcSize=1;arcSize=10;dashed=0;whiteSpace=wrap;" vertex="1" parent="1">
          <mxGeometry x="570" y="1560" width="140" height="40" as="geometry" />
        </mxCell>
        <mxCell id="N4OC66wwxZGrX0035T5u-75" value="calculate tax" style="html=1;align=center;verticalAlign=top;rounded=1;absoluteArcSize=1;arcSize=10;dashed=0;whiteSpace=wrap;" vertex="1" parent="1">
          <mxGeometry x="380" y="1490" width="140" height="40" as="geometry" />
        </mxCell>
        <mxCell id="N4OC66wwxZGrX0035T5u-77" style="edgeStyle=orthogonalEdgeStyle;rounded=0;orthogonalLoop=1;jettySize=auto;html=1;entryX=0;entryY=0.5;entryDx=0;entryDy=0;" edge="1" parent="1" source="N4OC66wwxZGrX0035T5u-76" target="N4OC66wwxZGrX0035T5u-67">
          <mxGeometry relative="1" as="geometry">
            <Array as="points">
              <mxPoint x="370" y="1580" />
              <mxPoint x="370" y="1235" />
            </Array>
          </mxGeometry>
        </mxCell>
        <mxCell id="N4OC66wwxZGrX0035T5u-76" value="calculate price&amp;nbsp;" style="html=1;align=center;verticalAlign=top;rounded=1;absoluteArcSize=1;arcSize=10;dashed=0;whiteSpace=wrap;" vertex="1" parent="1">
          <mxGeometry x="380" y="1560" width="140" height="40" as="geometry" />
        </mxCell>
        <mxCell id="N4OC66wwxZGrX0035T5u-80" style="edgeStyle=orthogonalEdgeStyle;rounded=0;orthogonalLoop=1;jettySize=auto;html=1;entryX=0.5;entryY=0;entryDx=0;entryDy=0;" edge="1" parent="1" source="N4OC66wwxZGrX0035T5u-78" target="N4OC66wwxZGrX0035T5u-72">
          <mxGeometry relative="1" as="geometry" />
        </mxCell>
        <mxCell id="N4OC66wwxZGrX0035T5u-82" style="edgeStyle=orthogonalEdgeStyle;rounded=0;orthogonalLoop=1;jettySize=auto;html=1;entryX=0.5;entryY=0;entryDx=0;entryDy=0;" edge="1" parent="1" source="N4OC66wwxZGrX0035T5u-78" target="N4OC66wwxZGrX0035T5u-75">
          <mxGeometry relative="1" as="geometry" />
        </mxCell>
        <mxCell id="N4OC66wwxZGrX0035T5u-78" value="" style="rhombus;" vertex="1" parent="1">
          <mxGeometry x="530" y="1430" width="30" height="30" as="geometry" />
        </mxCell>
        <mxCell id="N4OC66wwxZGrX0035T5u-87" style="edgeStyle=orthogonalEdgeStyle;rounded=0;orthogonalLoop=1;jettySize=auto;html=1;entryX=0.5;entryY=0;entryDx=0;entryDy=0;" edge="1" parent="1" source="N4OC66wwxZGrX0035T5u-84" target="N4OC66wwxZGrX0035T5u-86">
          <mxGeometry relative="1" as="geometry" />
        </mxCell>
        <mxCell id="N4OC66wwxZGrX0035T5u-84" value="propose to pay" style="html=1;align=center;verticalAlign=top;rounded=1;absoluteArcSize=1;arcSize=10;dashed=0;whiteSpace=wrap;" vertex="1" parent="1">
          <mxGeometry x="390" y="1300" width="140" height="40" as="geometry" />
        </mxCell>
        <mxCell id="N4OC66wwxZGrX0035T5u-92" style="edgeStyle=orthogonalEdgeStyle;rounded=0;orthogonalLoop=1;jettySize=auto;html=1;entryX=0;entryY=0.5;entryDx=0;entryDy=0;" edge="1" parent="1" source="N4OC66wwxZGrX0035T5u-86" target="N4OC66wwxZGrX0035T5u-91">
          <mxGeometry relative="1" as="geometry">
            <Array as="points">
              <mxPoint x="300" y="1355" />
              <mxPoint x="300" y="1740" />
            </Array>
          </mxGeometry>
        </mxCell>
        <mxCell id="N4OC66wwxZGrX0035T5u-98" style="edgeStyle=orthogonalEdgeStyle;rounded=0;orthogonalLoop=1;jettySize=auto;html=1;entryX=0.5;entryY=0;entryDx=0;entryDy=0;" edge="1" parent="1" source="N4OC66wwxZGrX0035T5u-86" target="N4OC66wwxZGrX0035T5u-90">
          <mxGeometry relative="1" as="geometry" />
        </mxCell>
        <mxCell id="N4OC66wwxZGrX0035T5u-101" style="edgeStyle=orthogonalEdgeStyle;rounded=0;orthogonalLoop=1;jettySize=auto;html=1;entryX=0;entryY=0.5;entryDx=0;entryDy=0;exitX=0.5;exitY=1;exitDx=0;exitDy=0;" edge="1" parent="1" source="N4OC66wwxZGrX0035T5u-108" target="N4OC66wwxZGrX0035T5u-100">
          <mxGeometry relative="1" as="geometry">
            <Array as="points">
              <mxPoint x="200" y="1900" />
            </Array>
          </mxGeometry>
        </mxCell>
        <mxCell id="N4OC66wwxZGrX0035T5u-112" style="edgeStyle=orthogonalEdgeStyle;rounded=0;orthogonalLoop=1;jettySize=auto;html=1;entryX=0.5;entryY=0;entryDx=0;entryDy=0;" edge="1" parent="1" source="N4OC66wwxZGrX0035T5u-86" target="N4OC66wwxZGrX0035T5u-111">
          <mxGeometry relative="1" as="geometry" />
        </mxCell>
        <mxCell id="N4OC66wwxZGrX0035T5u-86" value="" style="rhombus;" vertex="1" parent="1">
          <mxGeometry x="65" y="1340" width="30" height="30" as="geometry" />
        </mxCell>
        <mxCell id="N4OC66wwxZGrX0035T5u-167" style="edgeStyle=orthogonalEdgeStyle;rounded=0;orthogonalLoop=1;jettySize=auto;html=1;entryX=0;entryY=0.5;entryDx=0;entryDy=0;" edge="1" parent="1" source="N4OC66wwxZGrX0035T5u-90" target="N4OC66wwxZGrX0035T5u-163">
          <mxGeometry relative="1" as="geometry">
            <Array as="points">
              <mxPoint x="-130" y="2890" />
            </Array>
          </mxGeometry>
        </mxCell>
        <mxCell id="N4OC66wwxZGrX0035T5u-90" value="pay&amp;nbsp;" style="html=1;align=center;verticalAlign=top;rounded=1;absoluteArcSize=1;arcSize=10;dashed=0;whiteSpace=wrap;" vertex="1" parent="1">
          <mxGeometry x="-180" y="1480" width="140" height="40" as="geometry" />
        </mxCell>
        <mxCell id="N4OC66wwxZGrX0035T5u-95" value="" style="edgeStyle=orthogonalEdgeStyle;rounded=0;orthogonalLoop=1;jettySize=auto;html=1;" edge="1" parent="1" source="N4OC66wwxZGrX0035T5u-91" target="N4OC66wwxZGrX0035T5u-94">
          <mxGeometry relative="1" as="geometry" />
        </mxCell>
        <mxCell id="N4OC66wwxZGrX0035T5u-91" value="send discount request" style="html=1;align=center;verticalAlign=top;rounded=1;absoluteArcSize=1;arcSize=10;dashed=0;whiteSpace=wrap;" vertex="1" parent="1">
          <mxGeometry x="414" y="1720" width="140" height="40" as="geometry" />
        </mxCell>
        <mxCell id="N4OC66wwxZGrX0035T5u-93" value="pay by loan or use discount" style="text;html=1;strokeColor=none;fillColor=none;align=center;verticalAlign=middle;whiteSpace=wrap;rounded=0;" vertex="1" parent="1">
          <mxGeometry x="95" y="1370" width="60" height="30" as="geometry" />
        </mxCell>
        <mxCell id="N4OC66wwxZGrX0035T5u-97" style="edgeStyle=orthogonalEdgeStyle;rounded=0;orthogonalLoop=1;jettySize=auto;html=1;entryX=0;entryY=0.5;entryDx=0;entryDy=0;" edge="1" parent="1" source="N4OC66wwxZGrX0035T5u-94" target="N4OC66wwxZGrX0035T5u-96">
          <mxGeometry relative="1" as="geometry" />
        </mxCell>
        <mxCell id="N4OC66wwxZGrX0035T5u-94" value="input customer id data" style="html=1;align=center;verticalAlign=top;rounded=1;absoluteArcSize=1;arcSize=10;dashed=0;whiteSpace=wrap;" vertex="1" parent="1">
          <mxGeometry x="414" y="1800" width="140" height="40" as="geometry" />
        </mxCell>
        <mxCell id="N4OC66wwxZGrX0035T5u-161" style="edgeStyle=orthogonalEdgeStyle;rounded=0;orthogonalLoop=1;jettySize=auto;html=1;" edge="1" parent="1" source="N4OC66wwxZGrX0035T5u-96">
          <mxGeometry relative="1" as="geometry">
            <mxPoint x="320" y="1320" as="targetPoint" />
            <Array as="points">
              <mxPoint x="904" y="1700" />
              <mxPoint x="320" y="1700" />
            </Array>
          </mxGeometry>
        </mxCell>
        <mxCell id="N4OC66wwxZGrX0035T5u-96" value="update price" style="html=1;align=center;verticalAlign=top;rounded=1;absoluteArcSize=1;arcSize=10;dashed=0;whiteSpace=wrap;" vertex="1" parent="1">
          <mxGeometry x="833.5" y="1800" width="140" height="40" as="geometry" />
        </mxCell>
        <mxCell id="N4OC66wwxZGrX0035T5u-104" value="" style="edgeStyle=orthogonalEdgeStyle;rounded=0;orthogonalLoop=1;jettySize=auto;html=1;" edge="1" parent="1" source="N4OC66wwxZGrX0035T5u-100" target="N4OC66wwxZGrX0035T5u-103">
          <mxGeometry relative="1" as="geometry" />
        </mxCell>
        <mxCell id="N4OC66wwxZGrX0035T5u-100" value="send request to use a loan" style="html=1;align=center;verticalAlign=top;rounded=1;absoluteArcSize=1;arcSize=10;dashed=0;whiteSpace=wrap;" vertex="1" parent="1">
          <mxGeometry x="414" y="1880" width="140" height="40" as="geometry" />
        </mxCell>
        <mxCell id="N4OC66wwxZGrX0035T5u-102" value="report about loan" style="text;html=1;strokeColor=none;fillColor=none;align=center;verticalAlign=middle;whiteSpace=wrap;rounded=0;" vertex="1" parent="1">
          <mxGeometry x="200" y="1440" width="60" height="30" as="geometry" />
        </mxCell>
        <mxCell id="N4OC66wwxZGrX0035T5u-106" style="edgeStyle=orthogonalEdgeStyle;rounded=0;orthogonalLoop=1;jettySize=auto;html=1;entryX=0;entryY=0.5;entryDx=0;entryDy=0;" edge="1" parent="1" source="N4OC66wwxZGrX0035T5u-103" target="N4OC66wwxZGrX0035T5u-105">
          <mxGeometry relative="1" as="geometry" />
        </mxCell>
        <mxCell id="N4OC66wwxZGrX0035T5u-103" value="input customer id data" style="html=1;align=center;verticalAlign=top;rounded=1;absoluteArcSize=1;arcSize=10;dashed=0;whiteSpace=wrap;" vertex="1" parent="1">
          <mxGeometry x="414" y="1970" width="140" height="40" as="geometry" />
        </mxCell>
        <mxCell id="N4OC66wwxZGrX0035T5u-107" style="edgeStyle=orthogonalEdgeStyle;rounded=0;orthogonalLoop=1;jettySize=auto;html=1;entryX=0.5;entryY=1;entryDx=0;entryDy=0;" edge="1" parent="1" source="N4OC66wwxZGrX0035T5u-105" target="N4OC66wwxZGrX0035T5u-96">
          <mxGeometry relative="1" as="geometry" />
        </mxCell>
        <mxCell id="N4OC66wwxZGrX0035T5u-105" value="deduct from the loan" style="html=1;align=center;verticalAlign=top;rounded=1;absoluteArcSize=1;arcSize=10;dashed=0;whiteSpace=wrap;" vertex="1" parent="1">
          <mxGeometry x="833.5" y="1970" width="140" height="40" as="geometry" />
        </mxCell>
        <mxCell id="N4OC66wwxZGrX0035T5u-108" value="" style="rhombus;" vertex="1" parent="1">
          <mxGeometry x="185" y="1340" width="30" height="30" as="geometry" />
        </mxCell>
        <mxCell id="N4OC66wwxZGrX0035T5u-110" value="report about discount" style="text;html=1;strokeColor=none;fillColor=none;align=center;verticalAlign=middle;whiteSpace=wrap;rounded=0;" vertex="1" parent="1">
          <mxGeometry x="240" y="1360" width="60" height="30" as="geometry" />
        </mxCell>
        <mxCell id="N4OC66wwxZGrX0035T5u-116" style="edgeStyle=orthogonalEdgeStyle;rounded=0;orthogonalLoop=1;jettySize=auto;html=1;entryX=0;entryY=0.5;entryDx=0;entryDy=0;" edge="1" parent="1" source="N4OC66wwxZGrX0035T5u-111" target="N4OC66wwxZGrX0035T5u-114">
          <mxGeometry relative="1" as="geometry">
            <Array as="points">
              <mxPoint x="80" y="2140" />
            </Array>
          </mxGeometry>
        </mxCell>
        <mxCell id="N4OC66wwxZGrX0035T5u-111" value="input credit card data" style="html=1;align=center;verticalAlign=top;rounded=1;absoluteArcSize=1;arcSize=10;dashed=0;whiteSpace=wrap;" vertex="1" parent="1">
          <mxGeometry x="10" y="1550" width="140" height="40" as="geometry" />
        </mxCell>
        <mxCell id="N4OC66wwxZGrX0035T5u-113" value="by credit card" style="text;html=1;strokeColor=none;fillColor=none;align=center;verticalAlign=middle;whiteSpace=wrap;rounded=0;" vertex="1" parent="1">
          <mxGeometry x="20" y="1440" width="60" height="30" as="geometry" />
        </mxCell>
        <mxCell id="N4OC66wwxZGrX0035T5u-118" style="edgeStyle=orthogonalEdgeStyle;rounded=0;orthogonalLoop=1;jettySize=auto;html=1;entryX=0.5;entryY=0;entryDx=0;entryDy=0;" edge="1" parent="1" source="N4OC66wwxZGrX0035T5u-114" target="N4OC66wwxZGrX0035T5u-117">
          <mxGeometry relative="1" as="geometry">
            <Array as="points">
              <mxPoint x="900" y="2180" />
              <mxPoint x="530" y="2180" />
            </Array>
          </mxGeometry>
        </mxCell>
        <mxCell id="N4OC66wwxZGrX0035T5u-114" value="show credit card data" style="html=1;align=center;verticalAlign=top;rounded=1;absoluteArcSize=1;arcSize=10;dashed=0;whiteSpace=wrap;" vertex="1" parent="1">
          <mxGeometry x="830" y="2120" width="140" height="40" as="geometry" />
        </mxCell>
        <mxCell id="N4OC66wwxZGrX0035T5u-120" value="" style="edgeStyle=orthogonalEdgeStyle;rounded=0;orthogonalLoop=1;jettySize=auto;html=1;" edge="1" parent="1" source="N4OC66wwxZGrX0035T5u-117" target="N4OC66wwxZGrX0035T5u-119">
          <mxGeometry relative="1" as="geometry" />
        </mxCell>
        <mxCell id="N4OC66wwxZGrX0035T5u-117" value="confirm" style="html=1;align=center;verticalAlign=top;rounded=1;absoluteArcSize=1;arcSize=10;dashed=0;whiteSpace=wrap;" vertex="1" parent="1">
          <mxGeometry x="460" y="2200" width="140" height="40" as="geometry" />
        </mxCell>
        <mxCell id="N4OC66wwxZGrX0035T5u-123" style="edgeStyle=orthogonalEdgeStyle;rounded=0;orthogonalLoop=1;jettySize=auto;html=1;entryX=0;entryY=0.5;entryDx=0;entryDy=0;" edge="1" parent="1" source="N4OC66wwxZGrX0035T5u-119" target="N4OC66wwxZGrX0035T5u-122">
          <mxGeometry relative="1" as="geometry" />
        </mxCell>
        <mxCell id="N4OC66wwxZGrX0035T5u-119" value="" style="rhombus;" vertex="1" parent="1">
          <mxGeometry x="515" y="2310" width="30" height="30" as="geometry" />
        </mxCell>
        <mxCell id="N4OC66wwxZGrX0035T5u-122" value="switch to input item-mode" style="html=1;align=center;verticalAlign=top;rounded=1;absoluteArcSize=1;arcSize=10;dashed=0;whiteSpace=wrap;" vertex="1" parent="1">
          <mxGeometry x="845" y="2305" width="140" height="40" as="geometry" />
        </mxCell>
        <mxCell id="N4OC66wwxZGrX0035T5u-124" value="cancel" style="text;html=1;strokeColor=none;fillColor=none;align=center;verticalAlign=middle;whiteSpace=wrap;rounded=0;" vertex="1" parent="1">
          <mxGeometry x="560" y="2300" width="60" height="30" as="geometry" />
        </mxCell>
        <mxCell id="N4OC66wwxZGrX0035T5u-126" style="edgeStyle=orthogonalEdgeStyle;rounded=0;orthogonalLoop=1;jettySize=auto;html=1;entryX=-0.178;entryY=0.503;entryDx=0;entryDy=0;entryPerimeter=0;" edge="1" parent="1" source="N4OC66wwxZGrX0035T5u-119">
          <mxGeometry relative="1" as="geometry">
            <mxPoint x="963.0409999999997" y="2419.11" as="targetPoint" />
            <Array as="points">
              <mxPoint x="530" y="2390" />
              <mxPoint x="963" y="2390" />
            </Array>
          </mxGeometry>
        </mxCell>
        <mxCell id="N4OC66wwxZGrX0035T5u-129" value="" style="edgeStyle=orthogonalEdgeStyle;rounded=0;orthogonalLoop=1;jettySize=auto;html=1;" edge="1" parent="1" source="N4OC66wwxZGrX0035T5u-127" target="N4OC66wwxZGrX0035T5u-128">
          <mxGeometry relative="1" as="geometry" />
        </mxCell>
        <mxCell id="N4OC66wwxZGrX0035T5u-127" value="send a request for payment authorisation and request confirmation" style="html=1;align=center;verticalAlign=top;rounded=1;absoluteArcSize=1;arcSize=10;dashed=0;whiteSpace=wrap;" vertex="1" parent="1">
          <mxGeometry x="890" y="2420" width="140" height="60" as="geometry" />
        </mxCell>
        <mxCell id="N4OC66wwxZGrX0035T5u-133" style="edgeStyle=orthogonalEdgeStyle;rounded=0;orthogonalLoop=1;jettySize=auto;html=1;" edge="1" parent="1" source="N4OC66wwxZGrX0035T5u-128" target="N4OC66wwxZGrX0035T5u-130">
          <mxGeometry relative="1" as="geometry" />
        </mxCell>
        <mxCell id="N4OC66wwxZGrX0035T5u-136" style="edgeStyle=orthogonalEdgeStyle;rounded=0;orthogonalLoop=1;jettySize=auto;html=1;entryX=0.5;entryY=0;entryDx=0;entryDy=0;" edge="1" parent="1" source="N4OC66wwxZGrX0035T5u-128" target="N4OC66wwxZGrX0035T5u-135">
          <mxGeometry relative="1" as="geometry" />
        </mxCell>
        <mxCell id="N4OC66wwxZGrX0035T5u-139" style="edgeStyle=orthogonalEdgeStyle;rounded=0;orthogonalLoop=1;jettySize=auto;html=1;entryX=0.5;entryY=0;entryDx=0;entryDy=0;" edge="1" parent="1" source="N4OC66wwxZGrX0035T5u-128" target="N4OC66wwxZGrX0035T5u-138">
          <mxGeometry relative="1" as="geometry">
            <Array as="points">
              <mxPoint x="960" y="2560" />
              <mxPoint x="1015" y="2560" />
            </Array>
          </mxGeometry>
        </mxCell>
        <mxCell id="N4OC66wwxZGrX0035T5u-128" value="" style="rhombus;" vertex="1" parent="1">
          <mxGeometry x="945" y="2520" width="30" height="30" as="geometry" />
        </mxCell>
        <mxCell id="N4OC66wwxZGrX0035T5u-132" style="edgeStyle=orthogonalEdgeStyle;rounded=0;orthogonalLoop=1;jettySize=auto;html=1;entryX=1;entryY=0.5;entryDx=0;entryDy=0;" edge="1" parent="1" source="N4OC66wwxZGrX0035T5u-130" target="N4OC66wwxZGrX0035T5u-131">
          <mxGeometry relative="1" as="geometry" />
        </mxCell>
        <mxCell id="N4OC66wwxZGrX0035T5u-130" value="signal about error" style="html=1;align=center;verticalAlign=top;rounded=1;absoluteArcSize=1;arcSize=10;dashed=0;whiteSpace=wrap;" vertex="1" parent="1">
          <mxGeometry x="785" y="2560" width="140" height="40" as="geometry" />
        </mxCell>
        <mxCell id="N4OC66wwxZGrX0035T5u-131" value="demand to change type of payment" style="html=1;align=center;verticalAlign=top;rounded=1;absoluteArcSize=1;arcSize=10;dashed=0;whiteSpace=wrap;" vertex="1" parent="1">
          <mxGeometry x="470" y="2560" width="140" height="40" as="geometry" />
        </mxCell>
        <mxCell id="N4OC66wwxZGrX0035T5u-134" value="connection error" style="text;html=1;strokeColor=none;fillColor=none;align=center;verticalAlign=middle;whiteSpace=wrap;rounded=0;" vertex="1" parent="1">
          <mxGeometry x="870" y="2500" width="60" height="30" as="geometry" />
        </mxCell>
        <mxCell id="N4OC66wwxZGrX0035T5u-152" value="" style="edgeStyle=orthogonalEdgeStyle;rounded=0;orthogonalLoop=1;jettySize=auto;html=1;" edge="1" parent="1" source="N4OC66wwxZGrX0035T5u-135" target="N4OC66wwxZGrX0035T5u-151">
          <mxGeometry relative="1" as="geometry" />
        </mxCell>
        <mxCell id="N4OC66wwxZGrX0035T5u-135" value="report success&amp;nbsp;" style="html=1;align=center;verticalAlign=top;rounded=1;absoluteArcSize=1;arcSize=10;dashed=0;whiteSpace=wrap;" vertex="1" parent="1">
          <mxGeometry x="1240" y="2560" width="140" height="40" as="geometry" />
        </mxCell>
        <mxCell id="N4OC66wwxZGrX0035T5u-137" value="success" style="text;html=1;strokeColor=none;fillColor=none;align=center;verticalAlign=middle;whiteSpace=wrap;rounded=0;" vertex="1" parent="1">
          <mxGeometry x="985" y="2510" width="60" height="30" as="geometry" />
        </mxCell>
        <mxCell id="N4OC66wwxZGrX0035T5u-141" style="edgeStyle=orthogonalEdgeStyle;rounded=0;orthogonalLoop=1;jettySize=auto;html=1;entryX=0.5;entryY=0;entryDx=0;entryDy=0;" edge="1" parent="1" source="N4OC66wwxZGrX0035T5u-138" target="N4OC66wwxZGrX0035T5u-140">
          <mxGeometry relative="1" as="geometry" />
        </mxCell>
        <mxCell id="N4OC66wwxZGrX0035T5u-145" style="edgeStyle=orthogonalEdgeStyle;rounded=0;orthogonalLoop=1;jettySize=auto;html=1;entryX=0.5;entryY=0;entryDx=0;entryDy=0;" edge="1" parent="1" source="N4OC66wwxZGrX0035T5u-138" target="N4OC66wwxZGrX0035T5u-144">
          <mxGeometry relative="1" as="geometry" />
        </mxCell>
        <mxCell id="N4OC66wwxZGrX0035T5u-138" value="" style="rhombus;" vertex="1" parent="1">
          <mxGeometry x="1000" y="2610" width="30" height="30" as="geometry" />
        </mxCell>
        <mxCell id="N4OC66wwxZGrX0035T5u-143" style="edgeStyle=orthogonalEdgeStyle;rounded=0;orthogonalLoop=1;jettySize=auto;html=1;entryX=0.75;entryY=1;entryDx=0;entryDy=0;" edge="1" parent="1" source="N4OC66wwxZGrX0035T5u-140" target="N4OC66wwxZGrX0035T5u-131">
          <mxGeometry relative="1" as="geometry" />
        </mxCell>
        <mxCell id="N4OC66wwxZGrX0035T5u-140" value="signal about refuse" style="html=1;align=center;verticalAlign=top;rounded=1;absoluteArcSize=1;arcSize=10;dashed=0;whiteSpace=wrap;" vertex="1" parent="1">
          <mxGeometry x="835" y="2670" width="140" height="40" as="geometry" />
        </mxCell>
        <mxCell id="N4OC66wwxZGrX0035T5u-142" value="refuse" style="text;html=1;strokeColor=none;fillColor=none;align=center;verticalAlign=middle;whiteSpace=wrap;rounded=0;" vertex="1" parent="1">
          <mxGeometry x="940" y="2600" width="60" height="30" as="geometry" />
        </mxCell>
        <mxCell id="N4OC66wwxZGrX0035T5u-147" style="edgeStyle=orthogonalEdgeStyle;rounded=0;orthogonalLoop=1;jettySize=auto;html=1;entryX=1;entryY=0.5;entryDx=0;entryDy=0;" edge="1" parent="1" source="N4OC66wwxZGrX0035T5u-144" target="N4OC66wwxZGrX0035T5u-146">
          <mxGeometry relative="1" as="geometry">
            <Array as="points">
              <mxPoint x="1140" y="2765" />
            </Array>
          </mxGeometry>
        </mxCell>
        <mxCell id="N4OC66wwxZGrX0035T5u-144" value="signal that waiting limit has been exceeded" style="html=1;align=center;verticalAlign=top;rounded=1;absoluteArcSize=1;arcSize=10;dashed=0;whiteSpace=wrap;" vertex="1" parent="1">
          <mxGeometry x="1070" y="2670" width="140" height="40" as="geometry" />
        </mxCell>
        <mxCell id="N4OC66wwxZGrX0035T5u-149" style="edgeStyle=orthogonalEdgeStyle;rounded=0;orthogonalLoop=1;jettySize=auto;html=1;" edge="1" parent="1" source="N4OC66wwxZGrX0035T5u-146">
          <mxGeometry relative="1" as="geometry">
            <mxPoint x="260" y="2140" as="targetPoint" />
          </mxGeometry>
        </mxCell>
        <mxCell id="N4OC66wwxZGrX0035T5u-146" value="" style="rhombus;" vertex="1" parent="1">
          <mxGeometry x="530" y="2750" width="30" height="30" as="geometry" />
        </mxCell>
        <mxCell id="N4OC66wwxZGrX0035T5u-148" style="edgeStyle=orthogonalEdgeStyle;rounded=0;orthogonalLoop=1;jettySize=auto;html=1;entryX=0.537;entryY=0.979;entryDx=0;entryDy=0;entryPerimeter=0;" edge="1" parent="1" source="N4OC66wwxZGrX0035T5u-146" target="N4OC66wwxZGrX0035T5u-131">
          <mxGeometry relative="1" as="geometry" />
        </mxCell>
        <mxCell id="N4OC66wwxZGrX0035T5u-150" value="second chance" style="text;html=1;strokeColor=none;fillColor=none;align=center;verticalAlign=middle;whiteSpace=wrap;rounded=0;" vertex="1" parent="1">
          <mxGeometry x="430" y="2730" width="60" height="30" as="geometry" />
        </mxCell>
        <mxCell id="N4OC66wwxZGrX0035T5u-154" value="" style="edgeStyle=orthogonalEdgeStyle;rounded=0;orthogonalLoop=1;jettySize=auto;html=1;" edge="1" parent="1" source="N4OC66wwxZGrX0035T5u-151" target="N4OC66wwxZGrX0035T5u-153">
          <mxGeometry relative="1" as="geometry" />
        </mxCell>
        <mxCell id="N4OC66wwxZGrX0035T5u-151" value="register credit card payment, including payment confirmationinformation" style="html=1;align=center;verticalAlign=top;rounded=1;absoluteArcSize=1;arcSize=10;dashed=0;whiteSpace=wrap;" vertex="1" parent="1">
          <mxGeometry x="1240" y="2650" width="140" height="80" as="geometry" />
        </mxCell>
        <mxCell id="N4OC66wwxZGrX0035T5u-156" style="edgeStyle=orthogonalEdgeStyle;rounded=0;orthogonalLoop=1;jettySize=auto;html=1;entryX=1;entryY=0.5;entryDx=0;entryDy=0;" edge="1" parent="1" source="N4OC66wwxZGrX0035T5u-153" target="N4OC66wwxZGrX0035T5u-155">
          <mxGeometry relative="1" as="geometry">
            <Array as="points">
              <mxPoint x="1310" y="3370" />
            </Array>
          </mxGeometry>
        </mxCell>
        <mxCell id="N4OC66wwxZGrX0035T5u-153" value="provide signature input mechanism" style="html=1;align=center;verticalAlign=top;rounded=1;absoluteArcSize=1;arcSize=10;dashed=0;whiteSpace=wrap;" vertex="1" parent="1">
          <mxGeometry x="1240" y="2780" width="140" height="40" as="geometry" />
        </mxCell>
        <mxCell id="N4OC66wwxZGrX0035T5u-158" style="edgeStyle=orthogonalEdgeStyle;rounded=0;orthogonalLoop=1;jettySize=auto;html=1;entryX=1;entryY=0.5;entryDx=0;entryDy=0;" edge="1" parent="1" source="N4OC66wwxZGrX0035T5u-155" target="N4OC66wwxZGrX0035T5u-157">
          <mxGeometry relative="1" as="geometry" />
        </mxCell>
        <mxCell id="N4OC66wwxZGrX0035T5u-155" value="ask to sign check" style="html=1;align=center;verticalAlign=top;rounded=1;absoluteArcSize=1;arcSize=10;dashed=0;whiteSpace=wrap;" vertex="1" parent="1">
          <mxGeometry x="470" y="3350" width="140" height="40" as="geometry" />
        </mxCell>
        <mxCell id="N4OC66wwxZGrX0035T5u-160" style="edgeStyle=orthogonalEdgeStyle;rounded=0;orthogonalLoop=1;jettySize=auto;html=1;entryX=0;entryY=0.5;entryDx=0;entryDy=0;" edge="1" parent="1" source="N4OC66wwxZGrX0035T5u-157" target="N4OC66wwxZGrX0035T5u-159">
          <mxGeometry relative="1" as="geometry">
            <Array as="points">
              <mxPoint x="85" y="3480" />
              <mxPoint x="480" y="3480" />
            </Array>
          </mxGeometry>
        </mxCell>
        <mxCell id="N4OC66wwxZGrX0035T5u-157" value="sign check" style="html=1;align=center;verticalAlign=top;rounded=1;absoluteArcSize=1;arcSize=10;dashed=0;whiteSpace=wrap;" vertex="1" parent="1">
          <mxGeometry x="10" y="3350" width="140" height="40" as="geometry" />
        </mxCell>
        <mxCell id="N4OC66wwxZGrX0035T5u-172" style="edgeStyle=orthogonalEdgeStyle;rounded=0;orthogonalLoop=1;jettySize=auto;html=1;entryX=1;entryY=0.5;entryDx=0;entryDy=0;" edge="1" parent="1" source="N4OC66wwxZGrX0035T5u-159" target="N4OC66wwxZGrX0035T5u-166">
          <mxGeometry relative="1" as="geometry">
            <Array as="points">
              <mxPoint x="640" y="3487" />
              <mxPoint x="640" y="3150" />
            </Array>
          </mxGeometry>
        </mxCell>
        <mxCell id="N4OC66wwxZGrX0035T5u-159" value="put check in the cash register" style="html=1;align=center;verticalAlign=top;rounded=1;absoluteArcSize=1;arcSize=10;dashed=0;whiteSpace=wrap;" vertex="1" parent="1">
          <mxGeometry x="480" y="3467" width="140" height="40" as="geometry" />
        </mxCell>
        <mxCell id="N4OC66wwxZGrX0035T5u-168" value="" style="edgeStyle=orthogonalEdgeStyle;rounded=0;orthogonalLoop=1;jettySize=auto;html=1;" edge="1" parent="1" source="N4OC66wwxZGrX0035T5u-163" target="N4OC66wwxZGrX0035T5u-164">
          <mxGeometry relative="1" as="geometry" />
        </mxCell>
        <mxCell id="N4OC66wwxZGrX0035T5u-163" value="process the payment" style="html=1;align=center;verticalAlign=top;rounded=1;absoluteArcSize=1;arcSize=10;dashed=0;whiteSpace=wrap;" vertex="1" parent="1">
          <mxGeometry x="480" y="2870" width="140" height="40" as="geometry" />
        </mxCell>
        <mxCell id="N4OC66wwxZGrX0035T5u-169" value="" style="edgeStyle=orthogonalEdgeStyle;rounded=0;orthogonalLoop=1;jettySize=auto;html=1;" edge="1" parent="1" source="N4OC66wwxZGrX0035T5u-164" target="N4OC66wwxZGrX0035T5u-165">
          <mxGeometry relative="1" as="geometry" />
        </mxCell>
        <mxCell id="N4OC66wwxZGrX0035T5u-164" value="register sale" style="html=1;align=center;verticalAlign=top;rounded=1;absoluteArcSize=1;arcSize=10;dashed=0;whiteSpace=wrap;" vertex="1" parent="1">
          <mxGeometry x="480" y="2950" width="140" height="40" as="geometry" />
        </mxCell>
        <mxCell id="N4OC66wwxZGrX0035T5u-170" value="" style="edgeStyle=orthogonalEdgeStyle;rounded=0;orthogonalLoop=1;jettySize=auto;html=1;" edge="1" parent="1" source="N4OC66wwxZGrX0035T5u-165" target="N4OC66wwxZGrX0035T5u-166">
          <mxGeometry relative="1" as="geometry" />
        </mxCell>
        <mxCell id="N4OC66wwxZGrX0035T5u-165" value="send payment information" style="html=1;align=center;verticalAlign=top;rounded=1;absoluteArcSize=1;arcSize=10;dashed=0;whiteSpace=wrap;" vertex="1" parent="1">
          <mxGeometry x="480" y="3040" width="140" height="40" as="geometry" />
        </mxCell>
        <mxCell id="N4OC66wwxZGrX0035T5u-173" style="edgeStyle=orthogonalEdgeStyle;rounded=0;orthogonalLoop=1;jettySize=auto;html=1;entryX=1;entryY=0.5;entryDx=0;entryDy=0;" edge="1" parent="1" source="N4OC66wwxZGrX0035T5u-166" target="N4OC66wwxZGrX0035T5u-171">
          <mxGeometry relative="1" as="geometry" />
        </mxCell>
        <mxCell id="N4OC66wwxZGrX0035T5u-166" value="give a check" style="html=1;align=center;verticalAlign=top;rounded=1;absoluteArcSize=1;arcSize=10;dashed=0;whiteSpace=wrap;" vertex="1" parent="1">
          <mxGeometry x="480" y="3130" width="140" height="40" as="geometry" />
        </mxCell>
        <mxCell id="N4OC66wwxZGrX0035T5u-175" value="" style="edgeStyle=orthogonalEdgeStyle;rounded=0;orthogonalLoop=1;jettySize=auto;html=1;" edge="1" parent="1" source="N4OC66wwxZGrX0035T5u-171" target="N4OC66wwxZGrX0035T5u-174">
          <mxGeometry relative="1" as="geometry" />
        </mxCell>
        <mxCell id="N4OC66wwxZGrX0035T5u-171" value="get check" style="html=1;align=center;verticalAlign=top;rounded=1;absoluteArcSize=1;arcSize=10;dashed=0;whiteSpace=wrap;" vertex="1" parent="1">
          <mxGeometry y="3130" width="140" height="40" as="geometry" />
        </mxCell>
        <mxCell id="N4OC66wwxZGrX0035T5u-177" value="" style="edgeStyle=orthogonalEdgeStyle;rounded=0;orthogonalLoop=1;jettySize=auto;html=1;" edge="1" parent="1" source="N4OC66wwxZGrX0035T5u-174" target="N4OC66wwxZGrX0035T5u-176">
          <mxGeometry relative="1" as="geometry" />
        </mxCell>
        <mxCell id="N4OC66wwxZGrX0035T5u-174" value="leave the store" style="html=1;align=center;verticalAlign=top;rounded=1;absoluteArcSize=1;arcSize=10;dashed=0;whiteSpace=wrap;" vertex="1" parent="1">
          <mxGeometry x="-220" y="3400" width="140" height="40" as="geometry" />
        </mxCell>
        <mxCell id="N4OC66wwxZGrX0035T5u-176" value="" style="ellipse;html=1;shape=endState;fillColor=strokeColor;" vertex="1" parent="1">
          <mxGeometry x="-165" y="3520" width="30" height="30" as="geometry" />
        </mxCell>
        <mxCell id="N4OC66wwxZGrX0035T5u-180" style="edgeStyle=orthogonalEdgeStyle;rounded=0;orthogonalLoop=1;jettySize=auto;html=1;exitX=0;exitY=0.5;exitDx=0;exitDy=0;entryX=0;entryY=0.5;entryDx=0;entryDy=0;" edge="1" parent="1" source="N4OC66wwxZGrX0035T5u-178" target="N4OC66wwxZGrX0035T5u-174">
          <mxGeometry relative="1" as="geometry">
            <mxPoint x="-5" y="160" as="sourcePoint" />
            <mxPoint y="3240" as="targetPoint" />
            <Array as="points">
              <mxPoint x="-240" y="155" />
              <mxPoint x="-240" y="3420" />
            </Array>
          </mxGeometry>
        </mxCell>
        <mxCell id="N4OC66wwxZGrX0035T5u-178" value="" style="rhombus;" vertex="1" parent="1">
          <mxGeometry x="155" y="140" width="30" height="30" as="geometry" />
        </mxCell>
        <mxCell id="N4OC66wwxZGrX0035T5u-179" value="&amp;nbsp;no items" style="text;html=1;strokeColor=none;fillColor=none;align=center;verticalAlign=middle;whiteSpace=wrap;rounded=0;" vertex="1" parent="1">
          <mxGeometry x="95" y="120" width="60" height="30" as="geometry" />
        </mxCell>
      </root>
    </mxGraphModel>
  </diagram>
</mxfile>
